<svg width="36" height="37" viewBox="0 0 36 37" fill="none" xmlns="http://www.w3.org/2000/svg">
<path d="M24.75 34.1094H11.25M34.5938 9.92188V21.4531C34.5938 25.3363 31.4457 28.4844 27.5625 28.4844H8.43602C4.55358 28.4844 1.40625 25.337 1.40625 21.4546V9.92188C1.40625 6.03866 4.55428 2.89062 8.4375 2.89062H27.5625C31.4457 2.89062 34.5938 6.03866 34.5938 9.92188Z" stroke="black" stroke-width="2" stroke-miterlimit="10" stroke-linecap="round" stroke-linejoin="round"/>
<path d="M24.8906 11.5391L27.6481 14.29C28.4715 15.1109 28.4715 16.4419 27.6481 17.2628L24.8906 19.9766M11.25 11.5391L8.49257 14.29C7.66914 15.1109 7.66914 16.4419 8.49257 17.2628L11.25 19.9766M16.4531 21.3828L19.6875 10.1328" stroke="#636EDF" stroke-width="2" stroke-miterlimit="10" stroke-linecap="round" stroke-linejoin="round"/>
</svg>
