<svg width="36" height="37" viewBox="0 0 36 37" fill="none" xmlns="http://www.w3.org/2000/svg">
<mask id="mask0_181_776" style="mask-type:luminance" maskUnits="userSpaceOnUse" x="0" y="0" width="36" height="37">
<path d="M0 0.5H36V36.5H0V0.5Z" fill="white"/>
</mask>
<g mask="url(#mask0_181_776)">
<path d="M18.0003 27.2577C13.171 27.2577 9.24219 23.3289 9.24219 18.4996C9.24219 13.6704 13.171 9.74158 18.0003 9.74158C22.8296 9.74158 26.7584 13.6704 26.7584 18.4996C26.7584 23.3289 22.8296 27.2577 18.0003 27.2577Z" stroke="#636EDF" stroke-width="2" stroke-miterlimit="10"/>
<path d="M14.5366 18.4598L16.8972 20.8203L21.5373 16.1803" stroke="#636EDF" stroke-width="2" stroke-miterlimit="10"/>
<path d="M34.9453 20.619V16.381L31.5299 15.389C31.1787 13.861 30.5741 12.4291 29.7637 11.1386L31.4805 8.0162L28.4838 5.01948L25.3613 6.7363C24.071 5.92595 22.639 5.32126 21.111 4.97012L20.119 1.55469H15.881L14.889 4.97012C13.361 5.32126 11.929 5.92595 10.6387 6.7363L7.51619 5.01948L4.51948 8.0162L6.2363 11.1386C5.42594 12.4291 4.82126 13.861 4.47012 15.389L1.05469 16.381V20.619L4.47012 21.611C4.82126 23.1389 5.42594 24.5709 6.2363 25.8613L4.51948 28.9837L7.51619 31.9805L10.6387 30.2636C11.929 31.0741 13.361 31.6787 14.889 32.0299L15.881 35.4453H20.119L21.111 32.0299C22.639 31.6787 24.071 31.0741 25.3613 30.2636L28.4838 31.9805L31.4805 28.9837L29.7637 25.8613C30.5741 24.5709 31.1787 23.1389 31.5299 21.611L34.9453 20.619Z" stroke="black" stroke-width="2" stroke-miterlimit="10"/>
</g>
</svg>
