<svg width="36" height="37" viewBox="0 0 36 37" fill="none" xmlns="http://www.w3.org/2000/svg">
<mask id="mask0_181_114" style="mask-type:luminance" maskUnits="userSpaceOnUse" x="0" y="0" width="36" height="37">
<path d="M0 0.5H36V36.5H0V0.5Z" fill="white"/>
</mask>
<g mask="url(#mask0_181_114)">
<path d="M21.1641 5.42188H26.6484C28.9784 5.42188 30.8672 7.31067 30.8672 9.64062V23.9141" stroke="black" stroke-width="2" stroke-miterlimit="10" stroke-linecap="round" stroke-linejoin="round"/>
<path d="M30.8672 30.875C30.8672 33.2049 28.9784 35.0938 26.6484 35.0938H9.35938C7.02943 35.0938 5.14062 33.2049 5.14062 30.875V9.64062C5.14062 7.31067 7.02943 5.42188 9.35938 5.42188H14.9063" stroke="black" stroke-width="2" stroke-miterlimit="10" stroke-linecap="round" stroke-linejoin="round"/>
<path d="M20.8125 5.42188V4.71875C20.8125 3.16541 19.5533 1.90625 18 1.90625C16.4467 1.90625 15.1875 3.16541 15.1875 4.71875V5.42188" stroke="black" stroke-width="2" stroke-miterlimit="10" stroke-linecap="round" stroke-linejoin="round"/>
<path d="M20.8125 4.78906C20.8125 6.34241 19.5533 7.60156 18 7.60156C16.4467 7.60156 15.1875 6.34241 15.1875 4.78906" stroke="black" stroke-width="2" stroke-miterlimit="10" stroke-linecap="round" stroke-linejoin="round"/>
<path d="M14.8359 13.5078L10.6172 17.7266" stroke="#636EDF" stroke-width="2" stroke-miterlimit="10" stroke-linecap="round" stroke-linejoin="round"/>
<path d="M10.6172 13.5078L14.8359 17.7266" stroke="#636EDF" stroke-width="2" stroke-miterlimit="10" stroke-linecap="round" stroke-linejoin="round"/>
<path d="M25.3828 25.6016L21.1641 29.8203" stroke="#636EDF" stroke-width="2" stroke-miterlimit="10" stroke-linecap="round" stroke-linejoin="round"/>
<path d="M21.1641 25.6016L25.3828 29.8203" stroke="#636EDF" stroke-width="2" stroke-miterlimit="10" stroke-linecap="round" stroke-linejoin="round"/>
<path d="M10.6875 30.1562C10.9119 30.1562 11.0938 29.9744 11.0938 29.75C11.0938 29.5256 10.9119 29.3438 10.6875 29.3438C10.4631 29.3438 10.2812 29.5256 10.2812 29.75C10.2812 29.9744 10.4631 30.1562 10.6875 30.1562Z" fill="#636EDF" stroke="#636EDF" stroke-width="2"/>
<path d="M13.5703 26.5156L24.5391 14.2812" stroke="#636EDF" stroke-width="2" stroke-miterlimit="10" stroke-linecap="round" stroke-linejoin="round"/>
<path d="M25.3828 18.4297V14.9141C25.3828 14.1374 24.7532 13.5078 23.9766 13.5078H20.4609" stroke="#636EDF" stroke-width="2" stroke-miterlimit="10" stroke-linecap="round" stroke-linejoin="round"/>
</g>
</svg>
