<svg width="97" height="97" viewBox="0 0 97 97" fill="none" xmlns="http://www.w3.org/2000/svg">
<path d="M62.0237 35.5237C61.9131 35.5329 61.8024 35.5552 61.6944 35.5912L58.3502 36.7059C58.0018 36.822 57.621 36.7985 57.2918 36.636C56.5294 36.2598 55.7393 35.9315 54.9253 35.6548C54.5781 35.5368 54.2927 35.2843 54.1286 34.9562L52.5527 31.8045C52.3146 31.328 51.8276 31.0271 51.2949 31.0271H45.8649C45.3323 31.0271 44.8453 31.328 44.6072 31.8045L43.0313 34.9562C42.8672 35.2843 42.582 35.5368 42.2346 35.6548C41.4204 35.9313 40.6303 36.2597 39.8681 36.636C39.5387 36.7985 39.1581 36.822 38.8097 36.7059L35.4654 35.5912C34.9601 35.4229 34.4031 35.5543 34.0264 35.931L30.1868 39.7706C29.8101 40.1473 29.6786 40.7044 29.847 41.2097L30.9617 44.5539C31.0779 44.9023 31.0543 45.2831 30.8918 45.6124C30.5156 46.3747 30.1873 47.1648 29.9106 47.9788C29.7926 48.326 29.5401 48.6114 29.2119 48.7755L26.0603 50.3514C25.5838 50.5895 25.2829 51.0765 25.2829 51.6092V57.0392C25.2829 57.5719 25.5838 58.0588 26.0603 58.2969L29.2119 59.8729C29.5401 60.0369 29.7926 60.3221 29.9106 60.6695C30.1871 61.4837 30.5154 62.2738 30.8918 63.036C31.0543 63.3654 31.0778 63.746 30.9617 64.0944L29.847 67.4387C29.6786 67.944 29.8101 68.501 30.1868 68.8777L34.0264 72.7174C34.4031 73.094 34.9601 73.2255 35.4654 73.0571L38.8097 71.9424C39.1581 71.8262 39.5389 71.8498 39.8681 72.0123C40.6305 72.3885 41.4206 72.7168 42.2346 72.9935C42.5818 73.1115 42.8672 73.364 43.0313 73.6922L44.6072 76.8439C44.8453 77.3203 45.3323 77.6212 45.8649 77.6212H51.2949C51.8276 77.6212 52.3146 77.3203 52.5527 76.8439L54.1286 73.6922C54.2927 73.364 54.5779 73.1115 54.9253 72.9935C55.7394 72.717 56.5296 72.3887 57.2918 72.0123C57.6212 71.8498 58.0018 71.8264 58.3502 71.9424L61.6944 73.0571C62.1998 73.2255 62.7568 73.094 63.1335 72.7174L66.9731 68.8777C67.3498 68.501 67.4813 67.944 67.3129 67.4387L66.1982 64.0944C66.0819 63.746 66.1056 63.3652 66.2681 63.036C66.6443 62.2736 66.9726 61.4835 67.2493 60.6695C67.3673 60.3223 67.6198 60.0369 67.9479 59.8729L71.0996 58.2969C71.5761 58.0588 71.877 57.5719 71.877 57.0392V51.6092C71.877 51.0765 71.5761 50.5895 71.0996 50.3514L67.9479 48.7755C67.6198 48.6114 67.3673 48.3262 67.2493 47.9788C66.9728 47.1647 66.6444 46.3745 66.2681 45.6124C66.1056 45.2829 66.0821 44.9023 66.1982 44.5539L67.3129 41.2097C67.4813 40.7044 67.3498 40.1473 66.9731 39.7706" stroke="#636EDF" stroke-miterlimit="10" stroke-linecap="round" stroke-linejoin="round"/>
<path d="M39.8436 48.5L34.0195 54.3241L39.8436 60.1484" stroke="#636EDF" stroke-miterlimit="10" stroke-linecap="round" stroke-linejoin="round"/>
<path d="M57.3163 48.5L63.1405 54.3241L57.3163 60.1484" stroke="#636EDF" stroke-miterlimit="10" stroke-linecap="round" stroke-linejoin="round"/>
<path d="M51.492 48.5L45.6679 60.1484" stroke="#636EDF" stroke-miterlimit="10" stroke-linecap="round" stroke-linejoin="round"/>
<path d="M24.2736 86.3573H90.4862C93.075 86.3573 95.1737 84.2586 95.1737 81.6698V22.291" stroke="black" stroke-miterlimit="10" stroke-linecap="round" stroke-linejoin="round"/>
<path d="M1.98624 22.291V81.67C1.98624 84.2588 4.08493 86.3575 6.67374 86.3575H17.7111" stroke="black" stroke-miterlimit="10" stroke-linecap="round" stroke-linejoin="round"/>
<path d="M11.0149 10.6426H6.67374C4.08493 10.6426 1.98624 12.7413 1.98624 15.3301V22.291H95.1738V15.3301C95.1738 12.7413 93.0751 10.6426 90.4862 10.6426H17.5774" stroke="black" stroke-miterlimit="10" stroke-linecap="round" stroke-linejoin="round"/>
<path d="M89.3495 17.873C90.1261 17.873 90.7557 17.2434 90.7557 16.4668C90.7557 15.6901 90.1261 15.0605 89.3495 15.0605C88.5728 15.0605 87.9432 15.6901 87.9432 16.4668C87.9432 17.2434 88.5728 17.873 89.3495 17.873Z" fill="black"/>
<path d="M83.5253 17.873C84.3019 17.873 84.9315 17.2434 84.9315 16.4668C84.9315 15.6901 84.3019 15.0605 83.5253 15.0605C82.7486 15.0605 82.119 15.6901 82.119 16.4668C82.119 17.2434 82.7486 17.873 83.5253 17.873Z" fill="black"/>
<path d="M77.7011 17.873C78.4777 17.873 79.1073 17.2434 79.1073 16.4668C79.1073 15.6901 78.4777 15.0605 77.7011 15.0605C76.9244 15.0605 76.2948 15.6901 76.2948 16.4668C76.2948 17.2434 76.9244 17.873 77.7011 17.873Z" fill="black"/>
</svg>
